<?xml version="1.0" standalone="no"?>
<!DOCTYPE svg PUBLIC "-//W3C//DTD SVG 20010904//EN"
 "http://www.w3.org/TR/2001/REC-SVG-20010904/DTD/svg10.dtd">
<svg version="1.0" xmlns="http://www.w3.org/2000/svg"
 width="500.000000pt" height="500.000000pt" viewBox="0 0 500.000000 500.000000"
 preserveAspectRatio="xMidYMid meet">

<g transform="translate(0.000000,500.000000) scale(0.100000,-0.100000)"
fill="#000000" stroke="none">
<path d="M825 4958 c-3 -7 -4 -1118 -3 -2468 l3 -2455 1678 -3 1677 -2 0 2470
0 2470 -1675 0 c-1331 0 -1677 -3 -1680 -12z m3330 -2458 l0 -2440 -1652 0
-1653 0 0 2440 0 2440 1653 0 1652 0 0 -2440z"/>
<path d="M1760 4720 c-413 -38 -712 -323 -762 -727 -26 -213 52 -463 191 -615
32 -35 194 -184 360 -333 l301 -269 0 -717 0 -717 -76 -7 c-145 -14 -321 25
-441 97 -117 70 -227 209 -271 343 -28 83 -46 215 -39 291 5 62 4 64 -18 64
-20 0 -26 -9 -39 -54 -33 -113 -56 -286 -56 -419 0 -196 2 -201 74 -255 169
-125 480 -212 764 -212 l102 0 0 -332 c0 -370 -1 -373 -70 -452 -46 -52 -102
-78 -182 -84 -58 -4 -68 -7 -68 -23 0 -18 17 -19 445 -19 427 0 445 1 445 19
0 15 -10 19 -63 23 -103 9 -167 52 -220 152 -21 40 -22 49 -22 399 l0 358 70
28 c95 37 206 110 282 186 l62 63 57 -68 c31 -37 90 -118 133 -179 42 -61 103
-150 136 -198 33 -48 94 -135 135 -193 41 -58 93 -131 114 -164 96 -141 259
-286 399 -351 123 -58 172 -67 390 -72 191 -5 197 -4 197 15 0 16 -9 20 -66
26 -225 23 -406 176 -749 632 -50 67 -192 265 -228 320 -50 75 -209 246 -253
273 -24 14 -44 29 -44 32 0 3 21 7 48 7 171 7 365 133 490 321 75 112 108 197
128 329 31 205 -10 420 -108 567 -25 39 -64 88 -85 109 -56 57 -164 124 -251
156 -139 50 -240 60 -640 60 l-360 0 -248 221 c-137 121 -270 244 -296 272
-132 144 -185 378 -129 558 56 178 227 332 421 380 32 8 107 14 180 13 110 0
135 -3 205 -28 146 -50 253 -136 307 -248 27 -55 48 -138 48 -188 0 -25 4 -30
25 -30 l25 0 -2 298 -3 297 -135 6 c-74 3 -180 13 -235 22 -131 20 -269 27
-375 17z m991 -1747 c82 -31 118 -51 176 -99 130 -111 193 -283 193 -529 0
-270 -103 -459 -302 -556 -75 -35 -143 -57 -153 -48 -2 3 5 35 16 74 60 217
43 464 -45 650 -56 118 -84 147 -466 489 l-55 48 290 -4 c260 -5 296 -7 346
-25z"/>
</g>
</svg>
